<mxfile host="app.diagrams.net" modified="2023-10-13T07:55:35.529Z" agent="Mozilla/5.0 (Windows NT 10.0; Win64; x64) AppleWebKit/537.36 (KHTML, like Gecko) Chrome/118.0.0.0 Safari/537.36" etag="SSbLNAkQhl2eMZo-gp2q" version="22.0.4" type="github">
  <diagram id="R2lEEEUBdFMjLlhIrx00" name="Page-1">
    <mxGraphModel dx="568" dy="1432" grid="1" gridSize="10" guides="1" tooltips="1" connect="1" arrows="1" fold="1" page="1" pageScale="1" pageWidth="850" pageHeight="1100" math="0" shadow="0" extFonts="Permanent Marker^https://fonts.googleapis.com/css?family=Permanent+Marker">
      <root>
        <mxCell id="0" />
        <mxCell id="1" parent="0" />
        <mxCell id="NlJqaCyc9tvzujcTE35D-2" value="" style="swimlane;whiteSpace=wrap;html=1;labelBackgroundColor=none;fillColor=#5D7F99;strokeColor=#D0CEE2;fontColor=#1A1A1A;" vertex="1" parent="1">
          <mxGeometry x="140" y="-42" width="200" height="90" as="geometry" />
        </mxCell>
        <mxCell id="NlJqaCyc9tvzujcTE35D-3" value="&lt;font style=&quot;font-size: 21px;&quot;&gt;&lt;b&gt;User&lt;br&gt;(SuperClass)&lt;br&gt;&lt;/b&gt;&lt;/font&gt;" style="text;html=1;align=center;verticalAlign=middle;resizable=0;points=[];autosize=1;strokeColor=none;fillColor=none;labelBackgroundColor=none;fontColor=#1A1A1A;" vertex="1" parent="NlJqaCyc9tvzujcTE35D-2">
          <mxGeometry x="25" y="15" width="150" height="60" as="geometry" />
        </mxCell>
        <mxCell id="NlJqaCyc9tvzujcTE35D-4" value="Subclass" style="swimlane;whiteSpace=wrap;html=1;labelBackgroundColor=none;fillColor=#5D7F99;strokeColor=#D0CEE2;fontColor=#1A1A1A;" vertex="1" parent="1">
          <mxGeometry x="260" y="200" width="200" height="92" as="geometry" />
        </mxCell>
        <mxCell id="NlJqaCyc9tvzujcTE35D-7" value="&lt;b&gt;&lt;font style=&quot;font-size: 14px;&quot;&gt;Admins&lt;/font&gt;&lt;/b&gt;" style="text;html=1;strokeColor=none;fillColor=none;align=center;verticalAlign=middle;whiteSpace=wrap;rounded=0;labelBackgroundColor=none;fontColor=#1A1A1A;" vertex="1" parent="NlJqaCyc9tvzujcTE35D-4">
          <mxGeometry x="70" y="31" width="60" height="30" as="geometry" />
        </mxCell>
        <mxCell id="NlJqaCyc9tvzujcTE35D-5" value="Subclass" style="swimlane;whiteSpace=wrap;html=1;labelBackgroundColor=none;fillColor=#5D7F99;strokeColor=#D0CEE2;fontColor=#1A1A1A;" vertex="1" parent="1">
          <mxGeometry x="20" y="200" width="200" height="92" as="geometry" />
        </mxCell>
        <mxCell id="NlJqaCyc9tvzujcTE35D-8" value="&lt;b&gt;&lt;font style=&quot;font-size: 15px;&quot;&gt;Guest&amp;nbsp;&lt;/font&gt;&lt;/b&gt;" style="text;html=1;strokeColor=none;fillColor=none;align=center;verticalAlign=middle;whiteSpace=wrap;rounded=0;labelBackgroundColor=none;fontColor=#1A1A1A;" vertex="1" parent="NlJqaCyc9tvzujcTE35D-5">
          <mxGeometry x="65" y="31" width="60" height="30" as="geometry" />
        </mxCell>
        <mxCell id="NlJqaCyc9tvzujcTE35D-6" value="Vertical Container" style="swimlane;whiteSpace=wrap;html=1;labelBackgroundColor=none;fillColor=#5D7F99;strokeColor=#D0CEE2;fontColor=#1A1A1A;" vertex="1" parent="1">
          <mxGeometry x="560" y="240" width="200" height="92" as="geometry" />
        </mxCell>
        <mxCell id="NlJqaCyc9tvzujcTE35D-9" value="Text" style="text;html=1;strokeColor=none;fillColor=none;align=center;verticalAlign=middle;whiteSpace=wrap;rounded=0;labelBackgroundColor=none;fontColor=#1A1A1A;" vertex="1" parent="NlJqaCyc9tvzujcTE35D-6">
          <mxGeometry x="60" y="40" width="60" height="30" as="geometry" />
        </mxCell>
        <mxCell id="NlJqaCyc9tvzujcTE35D-46" value="" style="edgeStyle=orthogonalEdgeStyle;rounded=0;orthogonalLoop=1;jettySize=auto;html=1;strokeColor=#736CA8;fontColor=#1A1A1A;" edge="1" parent="1" source="NlJqaCyc9tvzujcTE35D-22">
          <mxGeometry relative="1" as="geometry">
            <mxPoint x="300" y="-40" as="targetPoint" />
          </mxGeometry>
        </mxCell>
        <mxCell id="NlJqaCyc9tvzujcTE35D-22" value="full_name" style="ellipse;shape=doubleEllipse;margin=3;whiteSpace=wrap;html=1;align=center;labelBackgroundColor=none;fillColor=#5D7F99;strokeColor=#D0CEE2;fontColor=#1A1A1A;" vertex="1" parent="1">
          <mxGeometry x="250" y="-120" width="100" height="57.5" as="geometry" />
        </mxCell>
        <mxCell id="NlJqaCyc9tvzujcTE35D-47" value="" style="edgeStyle=orthogonalEdgeStyle;rounded=0;orthogonalLoop=1;jettySize=auto;html=1;strokeColor=#736CA8;fontColor=#1A1A1A;entryX=0.2;entryY=0.022;entryDx=0;entryDy=0;entryPerimeter=0;" edge="1" parent="1" source="NlJqaCyc9tvzujcTE35D-27" target="NlJqaCyc9tvzujcTE35D-2">
          <mxGeometry relative="1" as="geometry" />
        </mxCell>
        <mxCell id="NlJqaCyc9tvzujcTE35D-27" value="&lt;b&gt;user_id&lt;/b&gt;" style="ellipse;whiteSpace=wrap;html=1;align=center;fontStyle=4;strokeColor=#D0CEE2;fontColor=#1A1A1A;fillColor=#5D7F99;" vertex="1" parent="1">
          <mxGeometry x="130" y="-120" width="100" height="50" as="geometry" />
        </mxCell>
        <mxCell id="NlJqaCyc9tvzujcTE35D-37" value="" style="edgeStyle=orthogonalEdgeStyle;rounded=0;orthogonalLoop=1;jettySize=auto;html=1;strokeColor=#736CA8;fontColor=#1A1A1A;" edge="1" parent="1" source="NlJqaCyc9tvzujcTE35D-29">
          <mxGeometry relative="1" as="geometry">
            <mxPoint x="340" y="10" as="targetPoint" />
            <Array as="points">
              <mxPoint x="360" y="-22" />
              <mxPoint x="360" y="10" />
            </Array>
          </mxGeometry>
        </mxCell>
        <mxCell id="NlJqaCyc9tvzujcTE35D-29" value="email" style="ellipse;whiteSpace=wrap;html=1;align=center;strokeColor=#D0CEE2;fontColor=#1A1A1A;fillColor=#5D7F99;" vertex="1" parent="1">
          <mxGeometry x="370" y="-50" width="100" height="40" as="geometry" />
        </mxCell>
        <mxCell id="NlJqaCyc9tvzujcTE35D-38" value="" style="edgeStyle=orthogonalEdgeStyle;rounded=0;orthogonalLoop=1;jettySize=auto;html=1;strokeColor=#736CA8;fontColor=#1A1A1A;" edge="1" parent="1" source="NlJqaCyc9tvzujcTE35D-30">
          <mxGeometry relative="1" as="geometry">
            <mxPoint x="340" y="30" as="targetPoint" />
          </mxGeometry>
        </mxCell>
        <mxCell id="NlJqaCyc9tvzujcTE35D-30" value="password" style="ellipse;whiteSpace=wrap;html=1;align=center;strokeColor=#D0CEE2;fontColor=#1A1A1A;fillColor=#5D7F99;" vertex="1" parent="1">
          <mxGeometry x="370" y="10" width="100" height="40" as="geometry" />
        </mxCell>
        <mxCell id="NlJqaCyc9tvzujcTE35D-40" value="" style="edgeStyle=orthogonalEdgeStyle;rounded=0;orthogonalLoop=1;jettySize=auto;html=1;strokeColor=#736CA8;fontColor=#1A1A1A;" edge="1" parent="1" source="NlJqaCyc9tvzujcTE35D-31">
          <mxGeometry relative="1" as="geometry">
            <mxPoint x="140" y="40" as="targetPoint" />
          </mxGeometry>
        </mxCell>
        <mxCell id="NlJqaCyc9tvzujcTE35D-42" style="edgeStyle=orthogonalEdgeStyle;rounded=0;orthogonalLoop=1;jettySize=auto;html=1;strokeColor=#736CA8;fontColor=#1A1A1A;exitX=0;exitY=0.5;exitDx=0;exitDy=0;" edge="1" parent="1" source="NlJqaCyc9tvzujcTE35D-33">
          <mxGeometry relative="1" as="geometry">
            <mxPoint x="339.9999999999999" y="49.99999999999977" as="targetPoint" />
          </mxGeometry>
        </mxCell>
        <mxCell id="NlJqaCyc9tvzujcTE35D-31" value="mobile_num" style="ellipse;whiteSpace=wrap;html=1;align=center;strokeColor=#D0CEE2;fontColor=#1A1A1A;fillColor=#5D7F99;" vertex="1" parent="1">
          <mxGeometry x="20" y="20" width="100" height="40" as="geometry" />
        </mxCell>
        <mxCell id="NlJqaCyc9tvzujcTE35D-48" value="" style="edgeStyle=orthogonalEdgeStyle;rounded=0;orthogonalLoop=1;jettySize=auto;html=1;strokeColor=#736CA8;fontColor=#1A1A1A;" edge="1" parent="1" source="NlJqaCyc9tvzujcTE35D-32">
          <mxGeometry relative="1" as="geometry">
            <mxPoint x="140" y="-10" as="targetPoint" />
            <Array as="points">
              <mxPoint x="140" y="-10" />
              <mxPoint x="140" y="-10" />
            </Array>
          </mxGeometry>
        </mxCell>
        <mxCell id="NlJqaCyc9tvzujcTE35D-32" value="address" style="ellipse;whiteSpace=wrap;html=1;align=center;strokeColor=#D0CEE2;fontColor=#1A1A1A;fillColor=#5D7F99;" vertex="1" parent="1">
          <mxGeometry x="20" y="-30" width="100" height="40" as="geometry" />
        </mxCell>
        <mxCell id="NlJqaCyc9tvzujcTE35D-33" value="preferences" style="ellipse;whiteSpace=wrap;html=1;align=center;strokeColor=#D0CEE2;fontColor=#1A1A1A;fillColor=#5D7F99;" vertex="1" parent="1">
          <mxGeometry x="360" y="70" width="100" height="40" as="geometry" />
        </mxCell>
        <mxCell id="NlJqaCyc9tvzujcTE35D-57" value="" style="edgeStyle=orthogonalEdgeStyle;rounded=0;orthogonalLoop=1;jettySize=auto;html=1;strokeColor=#736CA8;fontColor=#1A1A1A;" edge="1" parent="1" source="NlJqaCyc9tvzujcTE35D-51">
          <mxGeometry relative="1" as="geometry">
            <mxPoint x="110" y="201" as="targetPoint" />
          </mxGeometry>
        </mxCell>
        <mxCell id="NlJqaCyc9tvzujcTE35D-51" value="address" style="ellipse;whiteSpace=wrap;html=1;align=center;strokeColor=#D0CEE2;fontColor=#1A1A1A;fillColor=#5D7F99;" vertex="1" parent="1">
          <mxGeometry x="60" y="140" width="100" height="40" as="geometry" />
        </mxCell>
        <mxCell id="NlJqaCyc9tvzujcTE35D-64" value="" style="edgeStyle=orthogonalEdgeStyle;rounded=0;orthogonalLoop=1;jettySize=auto;html=1;strokeColor=#736CA8;fontColor=#1A1A1A;" edge="1" parent="1">
          <mxGeometry relative="1" as="geometry">
            <mxPoint x="399.9999999999999" y="489.9999999999998" as="sourcePoint" />
            <mxPoint x="400" y="470" as="targetPoint" />
          </mxGeometry>
        </mxCell>
        <mxCell id="NlJqaCyc9tvzujcTE35D-55" value="" style="edgeStyle=orthogonalEdgeStyle;rounded=0;orthogonalLoop=1;jettySize=auto;html=1;strokeColor=#736CA8;fontColor=#1A1A1A;" edge="1" parent="1" source="NlJqaCyc9tvzujcTE35D-54">
          <mxGeometry relative="1" as="geometry">
            <mxPoint x="360" y="200" as="targetPoint" />
          </mxGeometry>
        </mxCell>
        <mxCell id="NlJqaCyc9tvzujcTE35D-54" value="guest_limit" style="ellipse;whiteSpace=wrap;html=1;align=center;strokeColor=#D0CEE2;fontColor=#1A1A1A;fillColor=#5D7F99;" vertex="1" parent="1">
          <mxGeometry x="310" y="140" width="100" height="40" as="geometry" />
        </mxCell>
        <mxCell id="NlJqaCyc9tvzujcTE35D-62" value="Vertical Container" style="swimlane;whiteSpace=wrap;html=1;strokeColor=#D0CEE2;fontColor=#1A1A1A;fillColor=#5D7F99;" vertex="1" parent="1">
          <mxGeometry x="260" y="380" width="200" height="88" as="geometry" />
        </mxCell>
        <mxCell id="NlJqaCyc9tvzujcTE35D-77" style="edgeStyle=orthogonalEdgeStyle;rounded=0;orthogonalLoop=1;jettySize=auto;html=1;strokeColor=#736CA8;fontColor=#1A1A1A;exitX=0;exitY=0.5;exitDx=0;exitDy=0;" edge="1" parent="NlJqaCyc9tvzujcTE35D-62" source="NlJqaCyc9tvzujcTE35D-70">
          <mxGeometry relative="1" as="geometry">
            <mxPoint x="200" y="45" as="targetPoint" />
            <mxPoint x="210" y="44.99" as="sourcePoint" />
          </mxGeometry>
        </mxCell>
        <mxCell id="NlJqaCyc9tvzujcTE35D-63" value="&lt;b&gt;&lt;font style=&quot;font-size: 13px;&quot;&gt;Task&lt;/font&gt;&lt;/b&gt;" style="text;html=1;strokeColor=none;fillColor=none;align=center;verticalAlign=middle;whiteSpace=wrap;rounded=0;fontColor=#1A1A1A;" vertex="1" parent="NlJqaCyc9tvzujcTE35D-62">
          <mxGeometry x="70" y="38" width="60" height="30" as="geometry" />
        </mxCell>
        <mxCell id="NlJqaCyc9tvzujcTE35D-74" value="" style="edgeStyle=orthogonalEdgeStyle;rounded=0;orthogonalLoop=1;jettySize=auto;html=1;strokeColor=#736CA8;fontColor=#1A1A1A;" edge="1" parent="NlJqaCyc9tvzujcTE35D-62">
          <mxGeometry relative="1" as="geometry">
            <mxPoint x="-20" y="32.5" as="sourcePoint" />
            <mxPoint y="33" as="targetPoint" />
          </mxGeometry>
        </mxCell>
        <mxCell id="NlJqaCyc9tvzujcTE35D-67" value="" style="edgeStyle=orthogonalEdgeStyle;rounded=0;orthogonalLoop=1;jettySize=auto;html=1;strokeColor=#736CA8;fontColor=#1A1A1A;" edge="1" parent="1" source="NlJqaCyc9tvzujcTE35D-65">
          <mxGeometry relative="1" as="geometry">
            <mxPoint x="290" y="469" as="targetPoint" />
          </mxGeometry>
        </mxCell>
        <mxCell id="NlJqaCyc9tvzujcTE35D-65" value="task_name" style="ellipse;whiteSpace=wrap;html=1;align=center;strokeColor=#D0CEE2;fontColor=#1A1A1A;fillColor=#5D7F99;" vertex="1" parent="1">
          <mxGeometry x="240" y="490" width="100" height="40" as="geometry" />
        </mxCell>
        <mxCell id="NlJqaCyc9tvzujcTE35D-66" value="task_id" style="ellipse;whiteSpace=wrap;html=1;align=center;fontStyle=4;strokeColor=#D0CEE2;fontColor=#1A1A1A;fillColor=#5D7F99;" vertex="1" parent="1">
          <mxGeometry x="350" y="490" width="100" height="40" as="geometry" />
        </mxCell>
        <mxCell id="NlJqaCyc9tvzujcTE35D-71" value="" style="edgeStyle=orthogonalEdgeStyle;rounded=0;orthogonalLoop=1;jettySize=auto;html=1;strokeColor=#736CA8;fontColor=#1A1A1A;" edge="1" parent="1" source="NlJqaCyc9tvzujcTE35D-68">
          <mxGeometry relative="1" as="geometry">
            <mxPoint x="260" y="460" as="targetPoint" />
          </mxGeometry>
        </mxCell>
        <mxCell id="NlJqaCyc9tvzujcTE35D-68" value="task_duration" style="ellipse;whiteSpace=wrap;html=1;align=center;strokeColor=#D0CEE2;fontColor=#1A1A1A;fillColor=#5D7F99;" vertex="1" parent="1">
          <mxGeometry x="140" y="440" width="100" height="40" as="geometry" />
        </mxCell>
        <mxCell id="NlJqaCyc9tvzujcTE35D-69" value="task_deadline" style="ellipse;whiteSpace=wrap;html=1;align=center;strokeColor=#D0CEE2;fontColor=#1A1A1A;fillColor=#5D7F99;" vertex="1" parent="1">
          <mxGeometry x="140" y="390" width="100" height="40" as="geometry" />
        </mxCell>
        <mxCell id="NlJqaCyc9tvzujcTE35D-70" value="status" style="ellipse;whiteSpace=wrap;html=1;align=center;strokeColor=#D0CEE2;fontColor=#1A1A1A;fillColor=#5D7F99;" vertex="1" parent="1">
          <mxGeometry x="480" y="404" width="100" height="40" as="geometry" />
        </mxCell>
        <mxCell id="NlJqaCyc9tvzujcTE35D-80" value="assigned_user_id" style="ellipse;whiteSpace=wrap;html=1;align=center;strokeColor=#D0CEE2;fontColor=#1A1A1A;fillColor=#5D7F99;" vertex="1" parent="1">
          <mxGeometry x="480" y="468" width="100" height="40" as="geometry" />
        </mxCell>
      </root>
    </mxGraphModel>
  </diagram>
</mxfile>
